<?xml version="1.0" encoding="UTF-8"?>
<!DOCTYPE svg PUBLIC "-//W3C//DTD SVG 1.1//EN" "http://www.w3.org/Graphics/SVG/1.1/DTD/svg11.dtd">
<svg xmlns="http://www.w3.org/2000/svg" version="1.1" width="512px" height="512px" style="shape-rendering:geometricPrecision; text-rendering:geometricPrecision; image-rendering:optimizeQuality; fill-rule:evenodd; clip-rule:evenodd" xmlns:xlink="http://www.w3.org/1999/xlink">
<g><path style="opacity:0.993" fill="#000000" d="M 233.5,-0.5 C 248.167,-0.5 262.833,-0.5 277.5,-0.5C 369.213,10.5899 437.713,56.2566 483,136.5C 498.58,167.171 508.08,199.505 511.5,233.5C 511.5,248.167 511.5,262.833 511.5,277.5C 500.41,369.213 454.743,437.713 374.5,483C 343.829,498.58 311.495,508.08 277.5,511.5C 262.833,511.5 248.167,511.5 233.5,511.5C 141.787,500.41 73.287,454.743 28,374.5C 12.4204,343.829 2.92039,311.495 -0.5,277.5C -0.5,262.833 -0.5,248.167 -0.5,233.5C 10.5899,141.787 56.2566,73.287 136.5,28C 167.171,12.4204 199.505,2.92039 233.5,-0.5 Z M 250.5,136.5 C 258.464,135.824 265.798,137.658 272.5,142C 295.873,162.376 319.54,182.376 343.5,202C 350,207.167 355.833,213 361,219.5C 368.638,243.369 360.138,257.702 335.5,262.5C 329.801,261.767 324.467,259.933 319.5,257C 307.907,247.285 296.407,237.452 285,227.5C 284.967,269.533 284.3,311.533 283,353.5C 276.271,370.115 264.104,376.615 246.5,373C 237.241,369.409 231.075,362.909 228,353.5C 226.7,311.533 226.033,269.533 226,227.5C 214.593,237.452 203.093,247.285 191.5,257C 172.201,266.567 157.701,261.734 148,242.5C 144.67,228.32 148.836,216.82 160.5,208C 186.5,186 212.5,164 238.5,142C 242.481,139.838 246.481,138.005 250.5,136.5 Z" class="circulo"/></g>
</svg>
